# xmcd
# Track frame offsets:
# 150
# 16025
# 30484
# 49979
# 64598
# 76903
# 91653
# 106620
#
# Disc length: 1583 seconds
# Revision: 0
# Processed by: cddbd v1.5.1PL0 Copyright (c) Steve Scherf et al.
# Submitted via: VisiTrax 2.9.10.228 - For more info visit www.synapsa.com
#
DISCID=4a062d08
DTITLE=Various Artist - New Country 26 Nov-Dec 2004
DYEAR=2004
DGENRE=Christmas
TTITLE0=Billy McKnight - You wanna make something of it
TTITLE1=Floyd Flowers - I'm a fool for her love
TTITLE2=Model Citizens - Desert rose
TTITLE3=Kenny Isaacs - Back in Waco
TTITLE4=Johnny Lee - Santa Claus is looking for love
TTITLE5=T G Sheppard - A december to remember
TTITLE6=T G Sheppard - A whole lot more like christmas
TTITLE7=Barry Kaye - Randolph the red neck reindeer
EXTD=
EXTT0=
EXTT1=
EXTT2=
EXTT3=
EXTT4=
EXTT5=
EXTT6=
EXTT7=
PLAYORDER=
